# xmcd
#
# Track frame offsets:
#	183
#	18223
#	35833
#	55555
#	74250
#	95558
#	122248
#	143420
#	160323
#	170830
#
# Disc length: 2609 seconds
#
# Revision: 6
# Processed by: cddbd v1.5.2PL0 Copyright (c) Steve Scherf et al.
# Submitted via: audiograbber 1.83.01
#
DISCID=850a2f0a
DTITLE=Mike Bloomfield - RX for the Blues
DYEAR=1993
DGENRE=Blues
TTITLE0=Hully Gully
TTITLE1=Wings Of An Angel
TTITLE2=Walkin' The Floor
TTITLE3=Don't You Lie To Me
TTITLE4=Junko Partner
TTITLE5=Knockin' Myself Out
TTITLE6=Women Lovin' Each Other
TTITLE7=Cherry Red
TTITLE8=RX For The Blues
TTITLE9=You Must Have Jesus
EXTD=
EXTT0=
EXTT1=
EXTT2=
EXTT3=
EXTT4=
EXTT5=
EXTT6=
EXTT7=
EXTT8=
EXTT9=
PLAYORDER=
